<?xml version="1.0" encoding="UTF-8" standalone="no"?>
<!-- Created with Inkscape (http://www.inkscape.org/) -->

<svg
   xmlns:dc="http://purl.org/dc/elements/1.1/"
   xmlns:cc="http://creativecommons.org/ns#"
   xmlns:rdf="http://www.w3.org/1999/02/22-rdf-syntax-ns#"
   xmlns:svg="http://www.w3.org/2000/svg"
   xmlns="http://www.w3.org/2000/svg"
   xmlns:sodipodi="http://sodipodi.sourceforge.net/DTD/sodipodi-0.dtd"
   xmlns:inkscape="http://www.inkscape.org/namespaces/inkscape"
   id="svg3039"
   version="1.1"
   inkscape:version="0.48.4 r9939"
   width="400"
   height="400">
  <metadata
     id="metadata3045">
    <rdf:RDF>
      <cc:Work
         rdf:about="">
        <dc:format>image/svg+xml</dc:format>
        <dc:type
           rdf:resource="http://purl.org/dc/dcmitype/StillImage" />
        <dc:title></dc:title>
      </cc:Work>
    </rdf:RDF>
  </metadata>
  <defs
     id="defs3043" />
  <sodipodi:namedview
     pagecolor="#ffffff"
     bordercolor="#666666"
     borderopacity="1"
     objecttolerance="10"
     gridtolerance="10"
     guidetolerance="10"
     inkscape:pageopacity="0"
     inkscape:pageshadow="2"
     inkscape:window-width="1366"
     inkscape:window-height="722"
     id="namedview3041"
     showgrid="true"
     inkscape:snap-global="false"
     inkscape:zoom="1.3425"
     inkscape:cx="200"
     inkscape:cy="200"
     inkscape:window-x="-4"
     inkscape:window-y="-6"
     inkscape:window-maximized="1"
     inkscape:current-layer="svg3039">
    <inkscape:grid
       type="xygrid"
       id="grid3067"
       empspacing="5"
       visible="true"
       enabled="true"
       snapvisiblegridlinesonly="true" />
  </sodipodi:namedview>
  <g
     id="g3049"
     transform="matrix(1.0014405,0,0,1.0011786,0.01869996,0.07108499)">
    <path
       style="fill:#969696"
       d="M 0,200 0,0 l 200,0 200,0 0,200 0,200 -200,0 -200,0 0,-200 z"
       id="path3065"
       inkscape:connector-curvature="0" />
    <path
       style="fill:#8a898a"
       d="M 0,200 0,0 l 200,0 200,0 0,200 0,200 -200,0 -200,0 0,-200 z m 35.234895,37.75 c 0.257922,-28.45752 0.319086,-29.25 2.257521,-29.25 1.545444,0 3.788813,3.36505 10,15 l 8.007584,15 4.984133,0 4.984132,0 8.080843,-15 c 6.131408,-11.38138 8.547651,-15 10.015868,-15 1.86322,0 1.944861,1.08539 2.200129,29.25 l 0.265104,29.25 7.484896,0 7.484895,0 0,-37 0,-37 -13.25,0.0237 -13.25,0.0237 -6.254794,9.47633 C 64.805069,207.73565 61.319727,212 60.5,212 c -0.819727,0 -4.305069,-4.26435 -7.745206,-9.47633 L 46.5,193.04734 33.75,193.02367 21,193 l -0.05342,2.75 c -0.06074,3.12667 -0.04825,69.34952 0.0133,70.5 0.02207,0.4125 3.183326,0.75 7.025018,0.75 l 6.984896,0 0.265104,-29.25 z M 137,230 l 0,-37 -7.5,0 -7.5,0 0,37 0,37 7.5,0 7.5,0 0,-37 z m 39,11.5 c 0,-25.04325 0.0367,-25.5 2.05064,-25.5 1.57692,0 5.90839,5.88591 18.75,25.47883 l 16.69936,25.47882 6.75,0.0212 6.75,0.0212 0,-37 0,-37 -7,0 -7,0 0,16.41821 C 213,226.58225 212.67978,229 210.40646,229 209.64771,229 203.6148,220.9 197,211 l -12.0269,-18 -11.98655,0 -11.98655,0 0,37 0,37 7.5,0 7.5,0 0,-25.5 z m 125,19.5 0,-6 -18.80887,0 c -13.64208,0 -19.28672,-0.34941 -20.54841,-1.27198 -1.43661,-1.05048 -1.68758,-2.57426 -1.44113,-8.75 L 260.5,237.5 l 10.75,-0.28383 10.75,-0.28383 0,-6.46617 0,-6.46617 -9.87756,0 c -7.27158,0 -10.18573,-0.37134 -11.04567,-1.4075 -0.72425,-0.87267 -1.05577,-4.19756 -0.87245,-8.75 L 260.5,206.5 l 20,-0.5 20,-0.5 0.29772,-6.25 0.29771,-6.25 -27.54771,0 -27.54772,0 0,37 0,37 27.5,0 27.5,0 0,-6 z m 33,-6.46482 C 334,240.45482 334.24623,240 341.86916,240 c 7.14227,0 8.60489,1.21703 17.35368,14.43982 l 8.27716,12.50997 8.25,0.0251 c 4.5375,0.0138 8.25,-0.20314 8.25,-0.4821 0,-0.27896 -3.43805,-5.66937 -7.64012,-11.9787 -6.40764,-9.62095 -7.43645,-11.71691 -6.37756,-12.9928 0.69441,-0.83672 1.88247,-1.5213 2.64012,-1.5213 0.75766,0 2.27756,-0.9 3.37756,-2 1.86325,-1.86325 2,-3.33333 2,-21.5 0,-18.16667 -0.13675,-19.63675 -2,-21.5 -1.90303,-1.90303 -3.33333,-2 -29.5,-2 l -27.5,0 0,37 0,37 7.5,0 7.5,0 0,-12.46482 z m 1.65051,-27.80147 c -1.47079,-1.07547 -1.68795,-2.69537 -1.44113,-10.75 L 334.5,206.5 l 14,0 14,0 0.29062,9.48371 c 0.24682,8.05463 0.0297,9.67453 -1.44113,10.75 -2.38438,1.74351 -23.3146,1.74351 -25.69898,0 z M 45,154.58179 c 0,-9.58002 0.273145,-18.13002 0.606989,-19 0.511686,-1.33343 2.709816,-1.58179 14,-1.58179 L 73,134 l 0,-8.5 0,-8.5 -12.8,0 c -8.622222,0 -13.191667,-0.39167 -14,-1.2 -1.620693,-1.62069 -1.620693,-17.979307 0,-19.6 0.86749,-0.86749 7.933333,-1.2 25.5,-1.2 l 24.3,0 0,-8.5 0,-8.5 -35,0 -35,0 0,47 0,47 9.5,0 9.5,0 0,-17.41821 z m 87,2.5 c 0,-8.20502 0.27314,-15.63002 0.60699,-16.5 0.49379,-1.2868 2.356,-1.58179 9.98538,-1.58179 l 9.3784,0 11.02923,16.5 11.02923,16.5 10.98539,0 C 191.05658,172 196,171.76801 196,171.48446 c 0,-0.28355 -4.275,-6.91864 -9.5,-14.74465 -5.225,-7.82601 -9.5,-15.03026 -9.5,-16.00946 0,-1.16882 1.00668,-1.98169 2.93074,-2.3665 3.96948,-0.79389 6.85253,-3.68704 7.58336,-7.6099 0.33341,-1.78967 0.46664,-13.30622 0.29605,-25.59233 L 187.5,82.823245 184.69424,80.411623 181.88847,78 147.44424,78 113,78 l 0,47 0,47 9.5,0 9.5,0 0,-14.91821 z m 0.61586,-37.64046 C 132.27714,118.55863 132,113.20333 132,107.54066 c 0,-7.544683 0.36954,-10.602463 1.38299,-11.443548 0.94816,-0.786903 6.52895,-1.061209 17.75,-0.872444 L 167.5,95.5 l 0,12.5 0,12.5 -17.13414,0.27312 c -14.96726,0.23857 -17.21203,0.0701 -17.75,-1.33179 z M 283,164 l 0,-8 -9.25,-0.0631 c -5.0875,-0.0347 -15.55,-0.0893 -23.25,-0.12139 -19.06892,-0.0794 -18.5,0.23433 -18.5,-10.2015 0,-4.64774 0.27314,-9.16224 0.60699,-10.03222 0.51168,-1.33343 2.70981,-1.58179 14,-1.58179 L 260,134 l 0,-8.5 0,-8.5 -12.8,0 c -8.62222,0 -13.19167,-0.39167 -14,-1.2 -0.74729,-0.74729 -1.2,-4.44444 -1.2,-9.8 0,-5.35556 0.45271,-9.052713 1.2,-9.8 0.86749,-0.86749 7.93333,-1.2 25.5,-1.2 l 24.3,0 0,-8.5 0,-8.5 -35,0 -35,0 0,47 0,47 35,0 35,0 0,-8 z m 92,0 0,-8 -5.25,-0.074 c -2.8875,-0.0407 -13.25925,-0.0601 -23.04832,-0.0431 -9.78908,0.017 -18.91794,-0.39483 -20.28635,-0.9151 -2.44544,-0.92975 -2.48312,-1.113 -2.20167,-10.70688 L 324.5,134.5 338,134 l 13.5,-0.5 0.29044,-8.25 0.29044,-8.25 -12.79044,-0.0153 c -7.03474,-0.008 -13.41301,-0.40961 -14.17394,-0.89153 -1.85321,-1.17369 -1.73903,-19.08002 0.12922,-20.266187 0.68986,-0.437991 12.16678,-0.803238 25.50428,-0.81166 L 375,95 l 0,-8.5 0,-8.5 -35,0 -35,0 0,47 0,47 35,0 35,0 0,-8 z"
       id="path3063"
       inkscape:connector-curvature="0" />
    <path
       style="fill:#5eaa6a"
       d="M 0,200 0,0 l 200,0 200,0 0,200 0,200 -200,0 -200,0 0,-200 z m 36.234895,38.83295 c 0.190644,-20.97475 0.589831,-29.27519 1.421227,-29.55204 0.644556,-0.21464 4.359634,5.7222 8.395948,13.41705 3.981904,7.59112 7.918893,14.58954 8.748865,15.55204 2.050724,2.37818 9.349162,2.37818 11.393239,0 0.827283,-0.9625 4.787945,-7.9375 8.801472,-15.5 C 79.009173,215.1875 82.90205,209 83.646484,209 84.753917,209 85,214.36339 85,238.5 l 0,29.5 8,0 8,0 0,-38 0,-38 -13.367868,0 -13.367868,0 L 68,201.5 c -3.445345,5.225 -6.820345,9.5 -7.5,9.5 -0.679655,0 -4.054655,-4.275 -7.5,-9.5 L 46.735736,192 33.367868,192 20,192 l 0,38 0,38 7.984895,0 7.984896,0 0.265104,-29.16705 z M 137,230 l 0,-38 -8,0 -8,0 0,38 0,38 8,0 8,0 0,-38 z m 39.76717,12.25 c 0.21827,-20.62854 0.51885,-25.25 1.64223,-25.25 0.75628,0 8.90143,11.475 18.10034,25.5 l 16.72529,25.5 7.38248,0 7.38249,0 0,-38 0,-38 -8,0 -8,0 0,17.44098 c 0,9.59254 -0.41372,17.69668 -0.91938,18.00919 -1.4255,0.88101 -2.87205,-0.9801 -14.61682,-18.80578 L 185.5,192.00402 173.25,192.00201 161,192 l -0.0381,6.5 c -0.021,3.575 -0.0381,18.2 -0.0381,32.5 0,14.3 0.0172,28.49393 0.0381,31.54206 l 0.0381,5.54207 7.75,-0.29207 7.75,-0.29206 0.26717,-25.25 z M 301.5,261 l 0,-6.5 -20,-0.5 -20,-0.5 -0.29397,-7.25803 c -0.27459,-6.77937 -0.14269,-7.31518 2,-8.12448 1.26168,-0.47655 5.66897,-0.75844 9.79397,-0.62643 4.125,0.13201 8.0625,0.0274 8.75,-0.23251 0.83258,-0.31473 1.25,-2.76305 1.25,-7.33171 l 0,-6.85918 -10.75,-0.28383 -10.75,-0.28383 0,-7.5 0,-7.5 18.9249,-0.27271 c 12.2712,-0.17683 19.40611,-0.67208 20.2936,-1.40863 0.95123,-0.78945 1.27915,-2.99385 1.0751,-7.22729 L 301.5,192.5 273.25,192.23443 245,191.96885 245,230 l 0,38.03115 28.25,-0.26558 28.25,-0.26557 0,-6.5 z M 334,256.07143 C 334,241.79744 334.45352,241 342.57143,241 c 6.63748,0 6.72466,0.0796 16.79538,15.33053 L 367.07255,268 l 9.57874,0 9.57873,0 -1.78468,-2.75 c -0.98158,-1.5125 -4.6469,-7.025 -8.14516,-12.25 -6.2566,-9.34485 -6.32675,-9.5245 -4.29513,-11 7.14773,-5.19118 6.49495,-2.62829 6.49495,-25.5 0,-20.5235 -0.0175,-20.69087 -2.36078,-22.58835 C 373.94093,192.13158 371.8588,192 345.88922,192 L 318,192 l 0,38 0,38 8,0 8,0 0,-11.92857 z m 1.57143,-30.64286 C 334.42765,224.28479 334,221.85498 334,216.5 c 0,-10.19303 0.409,-10.5 13.98964,-10.5 5.96573,0 11.55859,0.27314 12.42857,0.60699 2.33224,0.89496 2.33224,18.89106 0,19.78602 -0.86998,0.33385 -6.46284,0.60699 -12.42857,0.60699 -8.52738,0 -11.18281,-0.33602 -12.41821,-1.57143 z M 46.227935,154.25 46.5,135.5 60,135 l 13.5,-0.5 0.287149,-9.22154 0.287149,-9.22154 L 60.287149,115.77846 46.5,115.5 l 0,-9.5 0,-9.5 L 71.75,96.232829 97,95.965658 97,86.470198 97,76.974737 61.25,77.237369 25.5,77.5 25.239428,124 c -0.143315,25.575 -0.04494,47.0625 0.218615,47.75 0.339199,0.88483 3.403285,1.25 10.488507,1.25 l 10.009319,0 0.272066,-18.75 z M 133,157.03518 c 0,-14.76049 0.14591,-16.0429 1.93426,-17 2.71693,-1.45406 14.34924,-1.30037 16.25897,0.21482 0.86652,0.6875 6.14992,8.13522 11.74089,16.55048 5.59097,8.41526 10.73302,15.5183 11.42678,15.78452 0.69376,0.26622 6.29326,0.356 12.44333,0.19952 L 197.98617,172.5 187.87004,157.29185 C 177.88285,142.27755 176.62008,139 180.82259,139 c 1.03695,0 3.03642,-1.06676 4.44326,-2.37058 3.43913,-3.18727 4.00172,-8.46143 3.57719,-33.53509 L 188.5,82.833566 185.23422,79.916783 181.96845,77 146.98422,77 112,77 l 0,48 0,48 10.5,0 10.5,0 0,-15.96482 z m 1.65489,-37.29826 c -1.48792,-1.088 -1.68768,-2.78601 -1.44113,-12.25 L 133.5,96.5 l 16.5,0 16.5,0 0.28434,11.41976 c 0.21073,8.46341 -0.0481,11.63073 -1,12.23469 -2.18034,1.38345 -29.16137,1.02156 -31.12945,-0.41753 z M 284,164 l 0,-9 -24.37756,0 c -19.70057,0 -24.60096,-0.26919 -25.542,-1.40308 -0.73851,-0.88985 -1.05764,-4.4563 -0.87245,-9.75 L 233.5,135.5 247,135 l 13.5,-0.5 0,-9 0,-9 -13.5,-0.5 -13.5,-0.5 0,-9.5 0,-9.5 25,-0.5 25,-0.5 0.28753,-9.25 L 284.07505,77 248.03753,77 212,77 l 0,48 0,48 36,0 36,0 0,-9 z m 91.5,0 0,-8.5 -24.78789,-0.5 c -20.56503,-0.41482 -24.94919,-0.75554 -25.73469,-2 -1.04902,-1.66195 -1.32578,-13.92861 -0.37043,-16.41821 0.51163,-1.33328 2.70814,-1.58179 13.98095,-1.58179 15.51571,0 14.73693,0.63128 14.21297,-11.52092 L 352.5,116.5 339.5648,116.21874 c -7.44551,-0.16189 -13.4932,-0.74436 -14.25,-1.37244 -1.82705,-1.51632 -1.81398,-16.187129 0.0158,-17.705692 0.86994,-0.721986 9.78445,-1.197118 25.75,-1.372445 L 375.5,95.5 l 0,-9 0,-9 L 339.75,77.237369 304,76.974737 304,125 l 0,48.02526 35.75,-0.26263 35.75,-0.26263 0,-8.5 z"
       id="path3061"
       inkscape:connector-curvature="0" />
    <path
       style="fill:#717171"
       d="M 1.25,321.33772 C 0.25729095,320.93715 0,287.81433 0,160.41667 L 0,0 l 200,0 200,0 0,160.39301 c 0,145.33496 -0.1485,160.45 -1.58179,161 -1.89264,0.72628 -395.3670395,0.6715 -397.16821,-0.0553 z m 34.984895,-82.50477 c 0.190644,-20.97475 0.589831,-29.27519 1.421227,-29.55204 0.644556,-0.21464 4.359634,5.7222 8.395948,13.41705 3.981904,7.59112 7.918893,14.58954 8.748865,15.55204 2.050724,2.37818 9.349162,2.37818 11.393239,0 0.827283,-0.9625 4.787945,-7.9375 8.801472,-15.5 C 79.009173,215.1875 82.90205,209 83.646484,209 84.753917,209 85,214.36339 85,238.5 l 0,29.5 8,0 8,0 0,-38 0,-38 -13.367868,0 -13.367868,0 L 68,201.5 c -3.445345,5.225 -6.820345,9.5 -7.5,9.5 -0.679655,0 -4.054655,-4.275 -7.5,-9.5 L 46.735736,192 33.367868,192 20,192 l 0,38 0,38 7.984895,0 7.984896,0 0.265104,-29.16705 z M 137,230 l 0,-38 -8,0 -8,0 0,38 0,38 8,0 8,0 0,-38 z m 39.76717,12.25 c 0.21827,-20.62854 0.51885,-25.25 1.64223,-25.25 0.75628,0 8.90143,11.475 18.10034,25.5 l 16.72529,25.5 7.38248,0 7.38249,0 0,-38 0,-38 -8,0 -8,0 0,17.44098 c 0,9.59254 -0.41372,17.69668 -0.91938,18.00919 -1.4255,0.88101 -2.87205,-0.9801 -14.61682,-18.80578 L 185.5,192.00402 173.25,192.00201 161,192 l -0.0381,6.5 c -0.021,3.575 -0.0381,18.2 -0.0381,32.5 0,14.3 0.0172,28.49393 0.0381,31.54206 l 0.0381,5.54207 7.75,-0.29207 7.75,-0.29206 0.26717,-25.25 z M 301.5,261 l 0,-6.5 -20,-0.5 -20,-0.5 -0.29397,-7.25803 c -0.27459,-6.77937 -0.14269,-7.31518 2,-8.12448 1.26168,-0.47655 5.66897,-0.75844 9.79397,-0.62643 4.125,0.13201 8.0625,0.0274 8.75,-0.23251 0.83258,-0.31473 1.25,-2.76305 1.25,-7.33171 l 0,-6.85918 -10.75,-0.28383 -10.75,-0.28383 0,-7.5 0,-7.5 18.9249,-0.27271 c 12.2712,-0.17683 19.40611,-0.67208 20.2936,-1.40863 0.95123,-0.78945 1.27915,-2.99385 1.0751,-7.22729 L 301.5,192.5 273.25,192.23443 245,191.96885 245,230 l 0,38.03115 28.25,-0.26558 28.25,-0.26557 0,-6.5 z M 334,256.07143 C 334,241.79744 334.45352,241 342.57143,241 c 6.63748,0 6.72466,0.0796 16.79538,15.33053 L 367.07255,268 l 9.57874,0 9.57873,0 -1.78468,-2.75 c -0.98158,-1.5125 -4.6469,-7.025 -8.14516,-12.25 -6.2566,-9.34485 -6.32675,-9.5245 -4.29513,-11 7.14773,-5.19118 6.49495,-2.62829 6.49495,-25.5 0,-20.5235 -0.0175,-20.69087 -2.36078,-22.58835 C 373.94093,192.13158 371.8588,192 345.88922,192 L 318,192 l 0,38 0,38 8,0 8,0 0,-11.92857 z m 1.57143,-30.64286 C 334.42765,224.28479 334,221.85498 334,216.5 c 0,-10.19303 0.409,-10.5 13.98964,-10.5 5.96573,0 11.55859,0.27314 12.42857,0.60699 2.33224,0.89496 2.33224,18.89106 0,19.78602 -0.86998,0.33385 -6.46284,0.60699 -12.42857,0.60699 -8.52738,0 -11.18281,-0.33602 -12.41821,-1.57143 z M 46.227935,154.25 46.5,135.5 60,135 l 13.5,-0.5 0.287149,-9.22154 0.287149,-9.22154 L 60.287149,115.77846 46.5,115.5 l 0,-9.5 0,-9.5 L 71.75,96.232829 97,95.965658 97,86.470198 97,76.974737 61.25,77.237369 25.5,77.5 25.239428,124 c -0.143315,25.575 -0.04494,47.0625 0.218615,47.75 0.339199,0.88483 3.403285,1.25 10.488507,1.25 l 10.009319,0 0.272066,-18.75 z M 133,157.03518 c 0,-14.76049 0.14591,-16.0429 1.93426,-17 2.71693,-1.45406 14.34924,-1.30037 16.25897,0.21482 0.86652,0.6875 6.14992,8.13522 11.74089,16.55048 5.59097,8.41526 10.73302,15.5183 11.42678,15.78452 0.69376,0.26622 6.29326,0.356 12.44333,0.19952 L 197.98617,172.5 187.87004,157.29185 C 177.88285,142.27755 176.62008,139 180.82259,139 c 1.03695,0 3.03642,-1.06676 4.44326,-2.37058 3.43913,-3.18727 4.00172,-8.46143 3.57719,-33.53509 L 188.5,82.833566 185.23422,79.916783 181.96845,77 146.98422,77 112,77 l 0,48 0,48 10.5,0 10.5,0 0,-15.96482 z m 1.65489,-37.29826 c -1.48792,-1.088 -1.68768,-2.78601 -1.44113,-12.25 L 133.5,96.5 l 16.5,0 16.5,0 0.28434,11.41976 c 0.21073,8.46341 -0.0481,11.63073 -1,12.23469 -2.18034,1.38345 -29.16137,1.02156 -31.12945,-0.41753 z M 284,164 l 0,-9 -24.37756,0 c -19.70057,0 -24.60096,-0.26919 -25.542,-1.40308 -0.73851,-0.88985 -1.05764,-4.4563 -0.87245,-9.75 L 233.5,135.5 247,135 l 13.5,-0.5 0,-9 0,-9 -13.5,-0.5 -13.5,-0.5 0,-9.5 0,-9.5 25,-0.5 25,-0.5 0.28753,-9.25 L 284.07505,77 248.03753,77 212,77 l 0,48 0,48 36,0 36,0 0,-9 z m 91.5,0 0,-8.5 -24.78789,-0.5 c -20.56503,-0.41482 -24.94919,-0.75554 -25.73469,-2 -1.04902,-1.66195 -1.32578,-13.92861 -0.37043,-16.41821 0.51163,-1.33328 2.70814,-1.58179 13.98095,-1.58179 15.51571,0 14.73693,0.63128 14.21297,-11.52092 L 352.5,116.5 339.5648,116.21874 c -7.44551,-0.16189 -13.4932,-0.74436 -14.25,-1.37244 -1.82705,-1.51632 -1.81398,-16.187129 0.0158,-17.705692 0.86994,-0.721986 9.78445,-1.197118 25.75,-1.372445 L 375.5,95.5 l 0,-9 0,-9 L 339.75,77.237369 304,76.974737 304,125 l 0,48.02526 35.75,-0.26263 35.75,-0.26263 0,-8.5 z"
       id="path3059"
       inkscape:connector-curvature="0" />
    <path
       style="fill:#4f4e4e"
       d="M 1.25,321.33772 C 0.25729095,320.93715 0,287.81433 0,160.41667 L 0,0 l 200,0 200,0 0,160.39301 c 0,145.33496 -0.1485,160.45 -1.58179,161 -1.89264,0.72628 -395.3670395,0.6715 -397.16821,-0.0553 z M 36.765335,239.75 C 36.913197,223.72865 37.426326,211 37.924331,211 c 0.491513,0 4.346046,6.40846 8.565629,14.24102 4.219583,7.83256 8.198035,14.57567 8.841004,14.98469 2.088531,1.32859 9.46399,0.83648 11.036879,-0.73641 0.830885,-0.83089 4.7179,-7.58089 8.63781,-15 C 78.925564,217.07018 82.545991,211 83.051047,211 c 0.530264,0 1.030399,12.14826 1.183618,28.75 L 84.5,268.5 l 8.75,0.28893 8.75,0.28894 0,-39.03894 0,-39.03893 -13.947334,0 -13.947335,0 -6.302665,9.24982 c -3.466466,5.0874 -6.752611,9.2499 -7.302544,9.25 -0.549932,1e-4 -3.844642,-4.17481 -7.321576,-9.27757 L 46.856847,190.94449 33.178424,191.22225 19.5,191.5 19.23822,230.2891 18.976441,269.07821 27.73822,268.7891 36.5,268.5 36.765335,239.75 z M 138,229.96107 l 0,-39.03894 -8.75,0.28894 -8.75,0.28893 -0.26242,37.49645 c -0.14433,20.62304 -0.0459,38.06054 0.21862,38.75 0.33354,0.86919 3.09691,1.25355 9.01242,1.25355 l 8.53138,0 0,-39.03893 z m 39.39301,37.45714 C 177.72686,266.54823 178,255.29823 178,242.41821 178,227.18392 178.35606,219 179.01885,219 c 0.56036,0 8.43051,11.26902 17.48921,25.04226 l 16.47036,25.04226 7.76079,-0.29226 L 228.5,268.5 l 0,-38.5 0,-38.5 -8.5,0 -8.5,0 -0.27361,17.25 c -0.16792,10.58637 -0.65779,17.25 -1.26812,17.25 -0.54698,0 -6.21025,-7.875 -12.58506,-17.5 L 185.78266,191 172.89133,191 160,191 l 0,39 0,39 8.39301,0 c 6.73084,0 8.51322,-0.31326 9,-1.58179 z m 125,0 c 0.86784,-2.26154 0.72186,-11.68919 -0.20355,-13.1459 -0.5625,-0.88544 -6.20336,-1.3036 -20.23469,-1.5 L 262.5,252.5 l -0.30184,-6.40894 c -0.20962,-4.45064 0.0959,-6.66126 1,-7.23469 0.71601,-0.45416 5.70827,-0.83264 11.0939,-0.84106 L 284.08413,238 283.79206,230.25 283.5,222.5 272.75,222.21617 262,221.93234 l 0,-6.85918 c 0,-5.33219 0.35214,-6.99431 1.58179,-7.46617 C 264.45177,207.27314 273.40363,207 283.4748,207 c 15.77495,0 18.3953,-0.21909 18.91821,-1.58179 0.87875,-2.28999 0.71667,-11.69717 -0.22715,-13.18409 -0.62401,-0.98307 -7.15538,-1.20648 -29.23469,-1 L 244.5,191.5 l -0.26242,37.49645 c -0.14433,20.62304 -0.046,38.06054 0.21862,38.75 0.36994,0.96405 7.04545,1.25355 28.90543,1.25355 24.99684,0 28.49759,-0.19074 29.03138,-1.58179 z M 335,256.7 c 0,-8.23333 0.39675,-12.69675 1.2,-13.5 0.66,-0.66 3.5894,-1.2 6.50979,-1.2 6.20075,0 5.39697,-0.7522 16.02855,15 l 7.76166,11.5 10.37093,0.28632 c 8.8974,0.24564 10.28887,0.0725 9.79343,-1.2186 -0.31762,-0.8277 -3.74703,-6.22904 -7.62092,-12.00298 -3.87389,-5.77394 -7.04059,-11.07557 -7.03712,-11.7814 0.003,-0.70584 1.35755,-2.05225 3.00904,-2.99202 4.63505,-2.63754 5.13223,-5.34476 4.79304,-26.09868 l -0.3084,-18.86995 -2.82372,-2.42679 -2.82373,-2.4268 -28.17627,0.26545 L 317.5,191.5 l -0.26242,37.49645 c -0.14433,20.62304 -0.046,38.06054 0.21862,38.75 0.33354,0.86919 3.09691,1.25355 9.01242,1.25355 l 8.53138,0 0,-12.3 z m 1.22975,-31.87025 c -1.77325,-1.77325 -1.64179,-15.2429 0.16338,-16.74106 0.92214,-0.7653 5.2327,-1.06026 12.75,-0.87244 L 360.5,207.5 l 0,9 0,9 -11.52025,0.27975 c -8.10942,0.19692 -11.88435,-0.0844 -12.75,-0.95 z M 46.772065,154.75 47.044131,136 59.772065,135.9847 c 7.000364,-0.008 13.308313,-0.38353 14.017663,-0.83357 0.939471,-0.59604 1.211046,-3.37552 1,-10.23469 L 74.5,115.5 61,115 l -13.5,-0.5 0,-8.5 0,-8.5 25,-0.5 25,-0.5 0,-10 0,-10 -35.933054,-0.26283 c -28.082098,-0.205404 -36.108201,0.01308 -36.734687,1 -0.981815,1.546673 -1.112075,95.14968 -0.133774,96.12798 0.384167,0.38417 5.446667,0.57167 11.25,0.41667 L 46.5,173.5 46.772065,154.75 z m 87.004385,2.79267 c 0.19455,-11.2305 0.63888,-16.18759 1.5,-16.73468 2.10821,-1.33941 14.45469,-0.93474 15.90212,0.52122 0.72679,0.73106 5.9992,8.38106 11.71648,17 L 173.2901,174 l 12.96194,0 c 10.9204,0 12.87418,-0.22869 12.40476,-1.45199 -0.30645,-0.7986 -4.65201,-7.5702 -9.6568,-15.04801 -5.00479,-7.47781 -9.33953,-14.22122 -9.63276,-14.98537 -0.34254,-0.89263 0.91461,-2.12794 3.51637,-3.45525 2.22724,-1.13625 4.51456,-2.93486 5.08295,-3.9969 C 188.59994,133.879 189,123.30699 189,107.75283 l 0,-25.378648 -3.06487,-2.937091 -3.06487,-2.937091 -35.68513,0 -35.68513,0 -0.26046,47.5 c -0.14326,26.125 -0.039,48.07781 0.23166,48.78402 0.36817,0.96057 3.20467,1.21247 11.26047,1 L 133.5,173.5 l 0.27645,-15.95733 z m 1.43671,-38.38977 c -0.94633,-0.60042 -1.21094,-3.57327 -1,-11.23469 L 134.5,97.5 149.92431,97.223015 c 11.66953,-0.209558 15.62157,0.03387 16.23468,1 1.17753,1.855525 1.02378,17.566955 -0.19417,19.842725 -0.94956,1.77426 -2.211,1.93299 -15.25,1.91895 -7.81815,-0.008 -14.7939,-0.38273 -15.50166,-0.83179 z M 284.5,164 l 0,-9.5 -25,-0.5 -25,-0.5 -0.28893,-8.75 -0.28894,-8.75 12.91649,0 c 9.85621,0 13.192,-0.33196 14.07931,-1.40111 0.74434,-0.89688 1.05832,-4.58565 0.87245,-10.25 L 261.5,115.5 247.75,115.22178 234,114.94356 l 0,-8.95461 0,-8.954608 25.25,-0.267171 L 284.5,96.5 l 0,-10 0,-10 -36.5,0 -36.5,0 -0.26046,47.5 c -0.14326,26.125 -0.0427,48.06813 0.22341,48.7625 0.37994,0.99132 8.27602,1.20612 36.76046,1 L 284.5,173.5 l 0,-9.5 z m 91.5,0 0,-10 -24.37756,0 c -19.73695,0 -24.59992,-0.26794 -25.54567,-1.4075 -0.72425,-0.87267 -1.05577,-4.19756 -0.87245,-8.75 L 325.5,136.5 337,136.25406 c 17.34988,-0.37106 16.12454,0.48528 15.78587,-11.03212 L 352.5,115.5 339,115 l -13.5,-0.5 0,-8.5 0,-8.5 25,-0.5 25,-0.5 0.28512,-10.262511 0.28512,-10.262511 -36.28512,0.262511 L 303.5,76.5 303.23954,124 c -0.14326,26.125 -0.0449,48.0625 0.21861,48.75 0.371,0.96801 8.60753,1.25 36.51047,1.25 L 376,174 l 0,-10 z"
       id="path3057"
       inkscape:connector-curvature="0" />
    <path
       style="fill:#304533"
       d="M 0,160.5 0,0 200,0 400,0 400,160.5 400,321 200,321 0,321 0,160.5 z M 37.393011,268.41821 C 37.726855,267.54823 38,254.64823 38,239.75155 c 0,-14.89669 0.3375,-26.7501 0.75,-26.34092 0.4125,0.40918 3.976857,6.67168 7.920794,13.91666 l 7.170794,13.17271 6.706789,0 6.706789,0 7.622417,-14 7.622417,-14 0.5,27.70174 c 0.326,18.06151 0.880358,28.0815 1.592979,28.79298 0.66695,0.66589 4.369929,0.97704 9.5,0.79826 L 102.5,269.5 l 0,-39.5 0,-39.5 -14.496448,0 -14.496448,0 -6.061586,8.88102 c -3.333873,4.88457 -6.459356,8.88103 -6.945518,8.88103 -0.486162,0 -3.611645,-3.99646 -6.945518,-8.88103 L 47.492896,190.5 l -14.496448,0 -14.496448,0 -0.262118,38.49723 c -0.144164,21.17348 -0.04579,39.06098 0.218616,39.75 0.335461,0.8742 3.17758,1.25277 9.405128,1.25277 7.215392,0 9.040634,-0.30291 9.531385,-1.58179 z M 138.5,230 l 0,-39.5 -8.34692,-0.29201 c -5.2937,-0.18519 -8.86015,0.13394 -9.75,0.87245 -1.15821,0.96123 -1.40308,7.67338 -1.40308,38.46022 0,20.51267 0.27935,38.02374 0.62078,38.91348 0.52084,1.35731 2.09031,1.57169 9.75,1.33179 L 138.5,269.5 l 0,-39.5 z m 39.5,15.33122 c 0.275,-13.29283 0.7713,-24.43913 1.10288,-24.76955 0.33159,-0.33042 7.98159,10.54553 17,24.16878 L 212.5,269.5 l 8.5,0 8.5,0 0,-39.5 0,-39.5 -9.5,0 -9.5,0 -0.27418,16.75 c -0.1508,9.2125 -0.6008,16.73817 -1,16.72372 -0.3992,-0.0144 -5.79828,-7.67744 -11.99795,-17.02887 L 185.95574,189.94226 172.72787,190.22113 159.5,190.5 l -0.26212,38.49723 c -0.14416,21.17348 -0.039,39.0786 0.23365,39.78917 0.36521,0.95172 2.80432,1.21579 9.26212,1.00277 L 177.5,269.5 178,245.33122 z M 302.5,261 l 0,-8.5 -19.79716,-0.2713 -19.79717,-0.27129 0.29717,-6.22871 L 263.5,239.5 274,239 l 10.5,-0.5 0.29568,-7.3425 c 0.18332,-4.55244 -0.1482,-7.87733 -0.87245,-8.75 C 283.0626,221.3705 280.14245,221 272.82984,221 l -9.92527,0 0.29771,-6.25 0.29772,-6.25 19.5,-0.5 19.5,-0.5 0,-8.5 0,-8.5 -29.5,0 -29.5,0 -0.26212,38.49723 c -0.14416,21.17348 -0.0432,39.06779 0.22443,39.76515 0.38082,0.99239 6.8481,1.21029 29.76212,1.00277 L 302.5,269.5 l 0,-8.5 z m 33.5,-4.5 0.5,-13 5.6293,-0.2963 c 5.46449,-0.28763 5.71636,-0.18516 8.60302,3.5 1.63554,2.08796 4.71235,6.4963 6.83735,9.7963 2.125,3.3 5.15396,7.6875 6.73101,9.75 l 2.86738,3.75 9.85695,0 c 5.94659,0 10.12033,-0.42615 10.52086,-1.07421 0.36514,-0.59082 -2.7583,-6.21258 -6.94099,-12.4928 -4.18268,-6.28023 -7.60487,-11.75933 -7.60485,-12.17579 2e-5,-0.41646 1.57502,-2.01388 3.5,-3.54983 L 380,237.91474 l 0,-21.28306 0,-21.28305 -2.57891,-2.42432 -2.57892,-2.42431 -28.01438,-0.29502 c -20.27048,-0.21347 -28.40323,0.0277 -29.42108,0.87245 -1.94171,1.61147 -2.10512,75.82416 -0.17121,77.75807 0.83672,0.83672 3.98366,1.14335 9.75,0.95 L 335.5,269.5 l 0.5,-13 z m 0.41949,-32.84921 c -0.28476,-0.74207 -0.38314,-4.45457 -0.21862,-8.25 L 336.5,208.5 l 11.41976,-0.28434 c 8.46341,-0.21073 11.63073,0.0481 12.23469,1 0.9512,1.49911 1.12575,11.89058 0.23856,14.20255 -0.50448,1.31466 -2.53632,1.58179 -12.03138,1.58179 -8.66508,0 -11.54945,-0.32587 -11.94214,-1.34921 z M 46.853763,173.6762 c 0.683554,-0.82363 1.202099,-8.09678 1.372445,-19.25 L 48.5,136.5 62,136 l 13.5,-0.5 0.288859,-9.35072 c 0.18643,-6.03498 -0.122936,-9.84689 -0.872445,-10.75 C 74.031309,114.3328 70.692375,114 60.877555,114 L 48,114 l 0,-8 0,-8 24.3,0 c 17.566667,0 24.63251,-0.33251 25.5,-1.2 1.627964,-1.627964 1.627964,-18.972036 0,-20.6 C 96.911403,75.311403 87.31893,75 60.835184,75 c -33.26832,0 -35.831315,0.124253 -36.717473,1.780055 -1.147466,2.144059 -0.939704,95.125405 0.216673,96.969945 1.131519,1.80489 21.014286,1.73973 22.519379,-0.0738 z m 86.996777,0.004 c 0.66027,-0.79557 1.20547,-7.44954 1.37244,-16.75 L 135.5,141.5 l 7.5,0 7.5,0 11.28067,16.75 11.28066,16.75 12.91032,0 c 8.0695,0 13.15761,-0.40012 13.56983,-1.06711 0.36273,-0.58692 -3.88571,-7.9136 -9.44098,-16.28151 C 184.54522,149.28346 180,142.16826 180,141.83981 c 0,-0.32844 1.36525,-1.16268 3.03389,-1.85385 1.66865,-0.69117 3.91865,-2.38145 5,-3.75618 C 189.86921,133.89655 190,132.07292 190,108.81548 190,81.054985 189.69407,79.506302 183.64292,76.634845 180.66478,75.221624 175.60232,75 146.29887,75 121.26642,75 112.08613,75.313866 111.2,76.2 c -1.7284,1.728402 -1.7284,95.8716 0,97.6 1.74085,1.74085 21.1917,1.63788 22.65054,-0.11991 z m 1.58854,-55.97825 c -0.28532,-0.74353 -0.38833,-5.59312 -0.22892,-10.77686 L 135.5,97.5 149.36265,97.221047 c 9.55526,-0.192277 14.30441,0.08768 15.28439,0.900987 1.08791,0.902884 1.35497,3.433836 1.13735,10.778956 L 165.5,118.5 l -14.77108,0.27685 c -11.68217,0.21896 -14.87956,-0.006 -15.28984,-1.07501 z M 284.8,173.8 c 1.25292,-1.25292 1.7169,-16.28941 0.59301,-19.21821 C 284.86197,153.19793 281.66613,153 259.85257,153 l -24.93345,0 0.29044,-8.25 0.29044,-8.25 12.96042,-0.28145 c 8.82908,-0.19173 13.20723,-0.66988 13.73469,-1.5 1.27648,-2.00894 0.94925,-18.17419 -0.39511,-19.51855 -0.80833,-0.80833 -5.37778,-1.2 -14,-1.2 l -12.8,0 0,-8 0,-8 24.3,0 c 17.56667,0 24.63251,-0.33251 25.5,-1.2 1.62796,-1.627964 1.62796,-18.972036 0,-20.6 -0.8886,-0.888597 -10.48107,-1.2 -36.96482,-1.2 -34.33617,0 -35.80616,0.07726 -36.8,1.934259 C 210.36452,78.187409 210,95.112747 210,125 c 0,29.88725 0.36452,46.81259 1.03518,48.06574 0.99384,1.85699 2.46383,1.93426 36.8,1.93426 26.48375,0 36.07622,-0.3114 36.96482,-1.2 z m 91.7,-9.8 0,-10.5 -25,-0.5 -25,-0.5 -0.29708,-7.41189 c -0.21058,-5.25379 0.0806,-7.65146 1,-8.23468 0.7134,-0.45254 7.03458,-0.8297 14.04708,-0.83812 L 354,136 l 0,-10.39301 c 0,-8.55458 -0.2798,-10.50038 -1.58179,-11 -0.86998,-0.33385 -7.16998,-0.60699 -14,-0.60699 L 326,114 l 0,-8 0,-8 24.25,-0.01531 c 13.3375,-0.0084 24.82908,-0.382725 25.53684,-0.831785 0.94633,-0.600423 1.21094,-3.573273 1,-11.234688 L 376.5,75.5 l -35,-0.278958 c -19.25,-0.153427 -36.0125,-0.03235 -37.25,0.269052 l -2.25,0.54801 0,48.814286 c 0,26.84785 0.30546,49.11974 0.6788,49.49308 0.37335,0.37334 17.13585,0.56084 37.25,0.41667 L 376.5,174.5 l 0,-10.5 z"
       id="path3055"
       inkscape:connector-curvature="0" />
    <path
       style="fill:#2c2b2c"
       d="M 0,160.25 0,0 l 200,0 200,0 0,160.25 0,160.25 -200,0 -200,0 0,-160.25 z m 38,81.25 0.5,-28 2.102612,3.5 c 1.156436,1.925 4.256838,7.55 6.889781,12.5 6.496362,12.21332 6.794681,12.5 13.007607,12.5 5.893308,0 6.576195,-0.54891 11.196624,-9 1.653846,-3.025 4.761179,-8.65 6.905185,-12.5 l 3.898191,-7 0.5,28 0.5,28 9.624295,0.2847 c 9.289945,0.2748 9.645555,0.20532 10.236345,-2 0.79303,-2.96026 0.80139,-72.57819 0.009,-75.5347 -0.59076,-2.20443 -0.90183,-2.25 -15.357666,-2.25 l -14.754693,0 -5.878675,8.98431 C 64.145404,203.92568 61.05,207.974 60.5,207.98058 c -0.55,0.007 -3.589551,-4.04839 -6.754559,-9.01102 l -5.754558,-9.02297 -14.745442,0.2767 L 18.5,190.5 18.238494,230.28635 17.976987,270.0727 27.738494,269.78635 37.5,269.5 38,241.5 z m 101.36971,26.25 c 0.79232,-2.95651 0.78396,-72.57444 -0.009,-75.5347 -0.59079,-2.20532 -0.9464,-2.2748 -10.23634,-2 L 119.5,190.5 l -0.26212,38.49723 c -0.14416,21.17348 -0.0458,39.06098 0.21862,39.75 0.33805,0.88094 3.27507,1.25277 9.89548,1.25277 8.91813,0 9.44656,-0.11869 10.01773,-2.25 z M 179,245 l 0.5,-24.5 16.39716,24.78679 16.39716,24.78678 8.60284,-0.28678 L 229.5,269.5 l 0,-39.5 0,-39.5 -9.5,0 -9.5,0 -0.27477,16.25 c -0.15113,8.9375 -0.67172,16.25 -1.15688,16.25 -0.48516,0 -5.72471,-7.425 -11.64345,-16.5 l -10.76134,-16.5 -13.72479,0 c -11.59272,0 -13.81908,0.24572 -14.33178,1.58179 -0.80089,2.08709 -0.78828,74.7822 0.0133,76.87118 0.52287,1.36258 2.13319,1.57181 10.25,1.33179 L 178.5,269.5 179,245 z m 124.39301,23.41821 c 0.873,-2.27498 0.71955,-13.69282 -0.20355,-15.1459 -0.5625,-0.88544 -6.20336,-1.3036 -20.23469,-1.5 L 263.5,251.5 l -0.2999,-5.75 -0.29991,-5.75 9.79991,-0.0153 c 5.38994,-0.008 10.38179,-0.38447 11.093,-0.83566 0.93077,-0.59048 1.21097,-3.17805 1,-9.23468 L 284.5,221.5 273.75,221.21617 263,220.93234 l 0,-5.96617 0,-5.96617 18.56574,0 c 10.88549,0 19.3659,-0.42823 20.5,-1.03518 1.64044,-0.87794 1.93193,-2.13113 1.91895,-8.25 -0.008,-3.96815 -0.37676,-7.78425 -0.81853,-8.48021 -0.62442,-0.98371 -7.35493,-1.20632 -30.23469,-1 L 243.5,190.5 l -0.26212,38.49723 c -0.14416,21.17348 -0.0458,39.06098 0.21862,39.75 0.37008,0.96442 7.25341,1.25277 29.90513,1.25277 25.90871,0 29.49692,-0.189 30.03138,-1.58179 z M 336.48434,267.75 c 0.28735,-1.2375 0.63343,-7.2 0.76906,-13.25 l 0.2466,-11 3.38837,-0.32368 c 6.38476,-0.60991 7.42899,0.26639 16.44414,13.79963 L 366.00846,270 l 10.99577,0 C 386.21783,270 388,269.75148 388,268.46666 c 0,-0.84333 -3.16955,-6.25746 -7.04344,-12.0314 -8.53005,-12.71384 -8.68243,-13.0701 -5.95988,-13.9342 1.17772,-0.3738 3.00858,-2.10195 4.06858,-3.84035 1.72218,-2.82438 1.92766,-5.1612 1.931,-21.96037 0.004,-20.67367 -0.61988,-23.47404 -5.6991,-25.57644 -1.94784,-0.80625 -11.29902,-1.07675 -30.79716,-0.89085 l -28,0.26695 -0.26212,38.49723 c -0.14416,21.17348 -0.0458,39.06098 0.21862,39.75 0.33853,0.8822 3.29447,1.25277 9.99306,1.25277 9.04318,0 9.5381,-0.11097 10.03478,-2.25 z m 0.9482,-44.0652 c -0.29194,-0.76077 -0.39619,-4.48858 -0.23167,-8.28401 L 337.5,208.5 l 11,0 11,0 0,8 0,8 -10.76833,0.28402 c -8.44211,0.22266 -10.883,-0.0148 -11.29913,-1.09922 z M 47.772065,155.75 48.044131,137 60.772065,136.9847 c 7.000364,-0.008 13.307013,-0.38273 14.014775,-0.83179 0.946325,-0.60042 1.210939,-3.57327 1,-11.23469 L 75.5,114.5 61.75,114.22178 48,113.94356 48,105.98895 48,98.034342 73.25,97.767171 98.5,97.5 l 0,-11 0,-11 -36.933252,-0.262509 c -28.882393,-0.205286 -37.107952,0.0127 -37.734687,1 -0.980517,1.544618 -1.112399,97.148839 -0.135361,98.125879 0.383185,0.38318 5.895685,0.57068 12.25,0.41666 L 47.5,174.5 47.772065,155.75 z m 87.002705,2.5 0.27477,-16.25 7.80026,0 7.80027,0 10.92496,16.25 10.92497,16.25 13.75,0.27822 c 11.88961,0.24058 13.75,0.0679 13.75,-1.27641 0,-0.85505 -4.11404,-7.70155 -9.14232,-15.21446 -5.02828,-7.5129 -9.33775,-14.40714 -9.57661,-15.32053 -0.29288,-1.11998 0.5516,-2.06908 2.59357,-2.9149 6.25227,-2.58977 6.59232,-4.06858 6.93973,-30.17998 C 191.16726,83.348915 190.665,80.600717 184.81018,77.01849 181.62783,75.071401 180.12903,75.002973 146,75.246593 L 110.5,75.5 110.23964,124 c -0.1432,26.675 -0.0393,49.07686 0.23086,49.7819 0.36974,0.9649 3.40164,1.21219 12.26036,1 L 134.5,174.5 134.77477,158.25 z M 135,108 l 0,-10 15,0 15,0 0,10 0,10 -15,0 -15,0 0,-10 z m 150.5,56 0,-10.5 -25,-0.5 -25,-0.5 -0.29206,-7.75 -0.29207,-7.75 12.91962,0 c 9.84338,0 13.1958,-0.33277 14.07951,-1.39758 0.75411,-0.90865 1.05933,-4.8444 0.87245,-11.25 L 262.5,114.5 248.75,114.22178 235,113.94356 l 0,-7.95461 0,-7.954608 25.25,-0.267171 L 285.5,97.5 l 0,-11 0,-11 -37.5,0 -37.5,0 -0.26036,48.5 c -0.1432,26.675 -0.0427,49.06799 0.2233,49.7622 0.37996,0.99159 8.47547,1.20598 37.76036,1 L 285.5,174.5 l 0,-10.5 z m 91.89301,9.41821 c 0.7884,-2.05454 0.7884,-16.78188 0,-18.83642 C 376.86259,153.19953 373.72455,153 352.51546,153 c -19.68721,0 -24.49198,-0.26678 -25.443,-1.41269 -0.70512,-0.84962 -1.05286,-3.9386 -0.87244,-7.75 L 326.5,137.5 l 13,-0.2688 c 10.77749,-0.22285 13.2137,-0.55471 14.25,-1.94113 1.74991,-2.34114 1.69736,-18.67391 -0.0648,-20.13637 -0.7568,-0.62808 -6.80449,-1.21055 -14.25,-1.37244 L 326.5,113.5 l -0.30908,-5.44655 c -0.16999,-2.99561 -0.0489,-6.48311 0.26906,-7.75 L 327.0381,98 l 24.28095,0 c 17.55185,0 24.61351,-0.332562 25.48095,-1.2 1.36296,-1.362956 1.66981,-18.51166 0.36794,-20.562509 -0.62674,-0.987302 -8.8523,-1.205286 -37.73469,-1 L 302.5,75.5 302.23964,124 c -0.1432,26.675 -0.0448,49.0625 0.21861,49.75 0.37122,0.96878 8.78598,1.25 37.40338,1.25 32.74773,0 36.99305,-0.17892 37.53138,-1.58179 z"
       id="path3053"
       inkscape:connector-curvature="0" />
    <path
       style="fill:#1c1a1b"
       d="M 0,160.5 0,0 l 200,0 200,0 0,160.5 c 0,106.33333 -0.33749,160.5 -1,160.5 -0.55,0 -1,-0.45377 -1,-1.00837 0,-0.67465 -65.5292,-0.98773 -198,-0.94598 C 76.248355,319.08464 2,319.46277 2,320.05402 2,320.57431 1.55,321 1,321 0.33748702,321 0,266.83333 0,160.5 z m 38.393011,108.91821 c 0.333844,-0.86998 0.617939,-13.35748 0.631322,-27.75 l 0.02433,-26.16821 6.898978,12.96001 c 3.794437,7.12801 7.720987,13.28388 8.725667,13.67972 2.294378,0.90397 8.114646,1.02377 11.083745,0.22814 1.639915,-0.43945 4.100758,-4.05862 9,-13.23635 L 81.5,216.5 l 0.267223,25.91829 c 0.180204,17.47819 0.636426,26.36315 1.400987,27.28439 0.847043,1.02063 3.56128,1.29418 10.732777,1.08171 L 103.5,270.5 l 0,-40.5 0,-40.5 -15.20685,-0.27581 -15.206849,-0.27582 -6.138985,9.12998 c -4.168742,6.19981 -6.466003,8.80296 -7.157927,8.11104 -0.560419,-0.56042 -3.329793,-4.54479 -6.154166,-8.85417 L 48.5,189.5 l -15.5,0 -15.5,0 -0.261832,39.49798 c -0.144007,21.72388 -0.04563,40.06138 0.218616,40.75 C 17.796897,270.6343 20.836043,271 27.861626,271 c 8.127261,0 10.034312,-0.28643 10.531385,-1.58179 z M 139.5,230 l 0,-40.5 -9.35072,-0.28886 c -6.03498,-0.18643 -9.84689,0.12294 -10.75,0.87245 -1.15447,0.95812 -1.39928,7.86139 -1.39928,39.45707 0,21.06267 0.27896,39.02272 0.61991,39.91121 0.52467,1.36728 2.17614,1.57187 10.75,1.33179 L 139.5,270.5 l 0,-40.5 z m 39.46482,39.06574 C 179.58908,267.8993 180,258.33327 180,244.96725 l 0,-22.16424 16.00064,24.13601 16.00063,24.13601 9.24937,-0.28751 L 230.5,270.5 l 0,-40.5 0,-40.5 -10.5,0 -10.5,0 -0.5,16 -0.5,16 -10.79052,-16.27721 -10.79052,-16.27721 -14.20948,0.27721 L 158.5,189.5 l -0.26183,39.49798 c -0.14401,21.72388 -0.0456,40.06138 0.21861,40.75 0.3381,0.88107 3.29399,1.25202 9.97665,1.25202 8.36516,0 9.6195,-0.23038 10.53139,-1.93426 z m 125,0 C 304.53417,268.0019 305,264.37232 305,261 c 0,-10.43812 0.94351,-10 -21.53518,-10 L 264,251 l 0,-5.46617 0,-5.46617 10.75,-0.28383 10.75,-0.28383 0.29201,-8.34692 c 0.18519,-5.2937 -0.13394,-8.86015 -0.87245,-9.75 C 284.06406,220.37226 281.13441,220 273.87756,220 L 264,220 l 0,-5.5 0,-5.5 19.88337,0 c 22.84086,0 21.07719,0.88245 21.10298,-10.55887 0.0227,-10.07355 2.00036,-9.51304 -32.48635,-9.20719 l -30,0.26606 -0.26183,39.49798 c -0.14401,21.72388 -0.0456,40.06138 0.21861,40.75 0.37,0.96419 7.37632,1.25202 30.47665,1.25202 28.63291,0 30.04325,-0.0879 31.03139,-1.93426 z M 337,257.5 l 0.5,-13 5.22474,0 5.22474,0 8.77526,13 8.77526,13 11.75,0.28174 c 11.27268,0.27029 11.75,0.1984 11.75,-1.76948 0,-1.12816 -3.37887,-7.10495 -7.50861,-13.28173 l -7.5086,-11.23053 2.63205,-1.92333 C 381.27254,239.17313 382,235.65052 382,216.5 382,196.82098 381.17474,193.17596 376.12844,190.56642 373.59154,189.25454 368.57388,189 345.24966,189 c -20.32751,0 -28.17378,0.32412 -29.04966,1.2 -0.89147,0.89147 -1.2,11.02627 -1.2,39.41821 0,21.02002 0.27896,38.94517 0.61991,39.83366 0.52467,1.36728 2.17614,1.57187 10.75,1.33179 L 336.5,270.5 l 0.5,-13 z m 0.41459,-34.86197 c -0.28745,-0.74909 -0.38582,-4.01159 -0.21861,-7.25 L 337.5,209.5 l 10.75,-0.28383 10.75,-0.28383 0,7.53383 0,7.53383 -10.53138,0 c -7.96439,0 -10.65878,-0.33198 -11.05403,-1.36197 z M 47.8,174.8 c 0.843446,-0.84345 1.2,-6.48889 1.2,-19 l 0,-17.8 12.065741,0 c 6.636158,0 12.936158,-0.46583 14,-1.03518 C 76.78523,136.04457 77,134.78988 77,125.66482 77,119.0144 76.577461,114.97746 75.8,114.2 74.991667,113.39167 70.422222,113 61.8,113 l -12.8,0 0,-7 0,-7 24.3,0 c 17.566667,0 24.63251,-0.33251 25.5,-1.2 1.64034,-1.640336 1.64034,-20.959664 0,-22.6 C 97.910187,74.310187 88.096708,74 60.835184,74 c -35.324841,0 -36.805362,0.07576 -37.8,1.934259 -1.422389,2.657757 -1.422389,95.473721 0,98.131481 0.929405,1.73661 2.186262,1.93426 12.3,1.93426 7.42819,0 11.673518,-0.4087 12.464816,-1.2 z m 87.59301,-0.38179 c 0.33385,-0.86998 0.60699,-8.51998 0.60699,-17 L 136,142 l 6.25,0.0153 c 3.4375,0.008 6.74134,0.34592 7.34186,0.75 0.60052,0.40408 5.73419,7.70969 11.40814,16.23469 5.67395,8.525 10.80762,15.83755 11.40814,16.25011 0.60052,0.41257 7.16127,0.63757 14.57944,0.5 11.73276,-0.21757 13.52964,-0.4694 13.81089,-1.93554 0.17782,-0.92699 -3.7765,-7.8111 -8.78739,-15.29801 -5.01088,-7.48692 -9.34975,-14.23556 -9.64194,-14.99698 -0.32504,-0.84703 0.65812,-1.99944 2.53288,-2.96891 C 190.65972,137.57324 191,135.73926 191,107.68452 191,71.397425 194.45756,74 146.24966,74 120.4777,74 111.08742,74.312578 110.2,75.2 c -1.72889,1.728886 -1.72889,97.87111 0,99.6 0.7965,0.7965 5.13178,1.2 12.89301,1.2 9.74001,0 11.79439,-0.2642 12.3,-1.58179 z M 136,108.52746 136,99 l 14.53753,0 14.53752,0 -0.28752,9.25 -0.28753,9.25 -14.25,0.27746 -14.25,0.27745 0,-9.52745 z M 285.8,174.8 c 1.25613,-1.25613 1.73114,-18.25228 0.59301,-21.21821 -0.531,-1.38377 -3.72332,-1.58179 -25.5,-1.58179 L 236,152 l 0,-7 0,-7 12.06574,0 c 6.63616,0 12.93616,-0.46583 14,-1.03518 1.71949,-0.92025 1.93426,-2.17494 1.93426,-11.3 0,-6.65042 -0.42254,-10.68736 -1.2,-11.46482 -0.80833,-0.80833 -5.37778,-1.2 -14,-1.2 l -12.8,0 0,-7 0,-7 24.3,0 c 17.56667,0 24.63251,-0.33251 25.5,-1.2 1.64034,-1.640336 1.64034,-20.959664 0,-22.6 -1.72133,-1.721327 -73.87867,-1.721327 -75.6,0 -1.72889,1.728886 -1.72889,97.87111 0,99.6 1.72133,1.72133 73.87867,1.72133 75.6,0 z m 91.7,-10.8 0,-11.5 -25,-0.5 -25,-0.5 -0.29569,-6.75 -0.29569,-6.75 11.79569,-0.0137 C 356.21446,137.96608 355,138.89736 355,125.49036 c 0,-9.3601 -0.26881,-11.37953 -1.58179,-11.88337 -0.86998,-0.33385 -7.16998,-0.60699 -14,-0.60699 L 327,113 l 0,-7 0,-7 24.25,-0.01531 c 13.3375,-0.0084 24.82795,-0.38203 25.53434,-0.830239 0.95185,-0.603959 1.21073,-3.771275 1,-12.234688 L 377.5,74.5 l -38,0 -38,0 -0.26026,49.5 c -0.14314,27.225 -0.0427,50.06792 0.22324,50.76205 0.37994,0.99173 8.57514,1.20592 38.26026,1 L 377.5,175.5 l 0,-11.5 z"
       id="path3051"
       inkscape:connector-curvature="0" />
  </g>
</svg>
